# xmcd
#
# Track frame offsets: 
#        150
#        10198
#        20984
#        31550
#        40932
#        50032
#        60971
#        70717
#        80316
#        89524
#        102198
#        112321
#        122742
#        131591
#        141565
#        152409
#        162908
#        172496
#        182542
#        192363
#        202753
#        211675
#        223649
#        235273
#        245950
#        256815
#        263936
#        273534
#        283997
#        298235
#        307600
#        317723
#
# Disc length: 4358 seconds
#
# Revision: 0
# Processed by: cddbd v1.5.2PL0 Copyright (c) Steve Scherf et al.
# Submitted via: ExactAudioCopy v0.99pb4
#
DISCID=de110420
DTITLE=Chet Atkins - Singles 1954 - 1961
DYEAR=1900
DGENRE=Country
TTITLE0=Mister Sandman (alt.)
TTITLE1=Tweedle Dee
TTITLE2=Dance With Me Henry
TTITLE3=Cherry Pink and Apple Blossom White
TTITLE4=Hey Mr. Guitar
TTITLE5=Unchained Melody
TTITLE6=Somebody Stole My Gal
TTITLE7=Shine On Harvest Moon
TTITLE8=Jingle Bells
TTITLE9=Christmas Carols
TTITLE10=Jean's Song
TTITLE11=Honey
TTITLE12=The Poor People Of Paris
TTITLE13=Honey (alt.)
TTITLE14=Cecilia
TTITLE15=The Lady Loves
TTITLE16=The New Spanish Two-Step
TTITLE17=Reminiscing
TTITLE18=Trambone
TTITLE19=Blue Ocean Echo
TTITLE20=Peanut Vendor
TTITLE21=Tricky
TTITLE22=Martinique
TTITLE23=Dig These Blues
TTITLE24=Colonial Ballroom
TTITLE25=El Relicario (alt.)
TTITLE26=Whatever Will Be Will Be (alt.)
TTITLE27=Rainbow's End
TTITLE28=Theme From "Dark At The Top Of The Stairs"
TTITLE29=Hocus Pocus
TTITLE30=The Slop
TTITLE31=Man Of Mystery
EXTD=
EXTT0=
EXTT1=
EXTT2=
EXTT3=
EXTT4=
EXTT5=
EXTT6=
EXTT7=
EXTT8=
EXTT9=
EXTT10=
EXTT11=
EXTT12=
EXTT13=
EXTT14=
EXTT15=
EXTT16=
EXTT17=
EXTT18=
EXTT19=
EXTT20=
EXTT21=
EXTT22=
EXTT23=
EXTT24=
EXTT25=
EXTT26=
EXTT27=
EXTT28=
EXTT29=
EXTT30=
EXTT31=
PLAYORDER=
